<svg xmlns="http://www.w3.org/2000/svg" width="19.599" height="24.121" viewBox="0 0 19.599 24.121">
  <g id="trash" transform="translate(-48)">
    <path id="Path_7215" data-name="Path 7215" d="M65.714,3.015H61.568V2.261A2.264,2.264,0,0,0,59.307,0H56.292A2.264,2.264,0,0,0,54.03,2.261v.754H49.884A1.887,1.887,0,0,0,48,4.9V7.538a.754.754,0,0,0,.754.754h.412l.651,13.676a2.259,2.259,0,0,0,2.259,2.154H63.523a2.259,2.259,0,0,0,2.259-2.154l.651-13.676h.412a.754.754,0,0,0,.754-.754V4.9A1.887,1.887,0,0,0,65.714,3.015ZM55.538,2.261a.755.755,0,0,1,.754-.754h3.015a.755.755,0,0,1,.754.754v.754H55.538ZM49.508,4.9a.377.377,0,0,1,.377-.377h15.83a.377.377,0,0,1,.377.377V6.784H49.508Zm14.768,17a.753.753,0,0,1-.753.718H52.076a.753.753,0,0,1-.753-.718l-.648-13.6H64.924Z" transform="translate(0)" fill="#df8a8d"/>
    <path id="Path_7216" data-name="Path 7216" d="M240.754,219.307a.754.754,0,0,0,.754-.754v-9.8a.754.754,0,1,0-1.508,0v9.8A.754.754,0,0,0,240.754,219.307Z" transform="translate(-182.954 -198.201)" fill="#df8a8d"/>
    <path id="Path_7217" data-name="Path 7217" d="M320.754,219.307a.754.754,0,0,0,.754-.754v-9.8a.754.754,0,1,0-1.508,0v9.8A.754.754,0,0,0,320.754,219.307Z" transform="translate(-259.186 -198.201)" fill="#df8a8d"/>
    <path id="Path_7218" data-name="Path 7218" d="M160.754,219.307a.754.754,0,0,0,.754-.754v-9.8a.754.754,0,1,0-1.508,0v9.8A.754.754,0,0,0,160.754,219.307Z" transform="translate(-106.723 -198.201)" fill="#df8a8d"/>
  </g>
</svg>
